<svg width="50" height="50" viewBox="0 0 50 50" fill="none" xmlns="http://www.w3.org/2000/svg">
<path d="M0 50C0.695621 47.929 1.35092 45.988 2.00621 44.0471C2.66151 42.1261 3.24623 40.1751 3.99226 38.2842C4.37535 37.3237 4.25438 36.6034 3.77047 35.7029C1.12912 30.8405 0.34277 25.628 1.26018 20.2053C2.03646 15.613 4.00234 11.551 7.178 8.09928C12.4103 2.42648 18.9431 -0.29487 26.6655 0.0252888C32.3212 0.255403 37.3216 2.30642 41.586 6.01825C45.5581 9.46996 48.1491 13.7621 49.3488 18.8646C50.3166 22.9766 50.2057 27.0687 49.0161 31.1207C47.5038 36.2532 44.6105 40.4853 40.3057 43.7069C34.3274 48.1891 27.6232 49.5798 20.3141 48.1691C18.1164 47.7489 16.0194 46.9685 14.0435 45.908C13.7209 45.7379 13.4487 45.6979 13.0958 45.8179C9.34551 47.0185 5.58513 48.2091 1.83483 49.3997C1.27026 49.5798 0.695621 49.7699 0 50ZM6.38157 43.7269C6.58319 43.6769 6.67393 43.6569 6.76466 43.6268C9.11364 42.8865 11.4626 42.1361 13.8217 41.4158C14.0435 41.3457 14.3459 41.4057 14.5576 41.5058C15.5759 42.006 16.5538 42.6063 17.6022 43.0466C21.9171 44.8575 26.363 45.1476 30.8594 43.907C36.2227 42.4162 40.3359 39.2447 43.1487 34.4523C45.5581 30.3503 46.3848 25.9181 45.6388 21.2558C44.6911 15.3229 41.6264 10.6605 36.5554 7.34891C32.1599 4.48749 27.3208 3.51702 22.1591 4.32742C17.7131 5.02776 13.9124 7.03876 10.7771 10.2603C8.08533 13.0217 6.28075 16.2833 5.4944 20.0352C4.37535 25.4078 5.20203 30.4904 8.20631 35.1226C8.8112 36.0531 8.79103 36.7635 8.4281 37.7139C7.69216 39.6649 7.07719 41.6559 6.38157 43.7269Z" fill="#1B5745"/>
<path d="M38.1585 31.3807C38.1282 33.3116 37.2108 34.7824 35.3558 35.7028C33.5311 36.6033 31.6761 36.8334 29.7707 36.093C28.0568 35.4227 26.3228 34.7724 24.6695 33.962C22.4919 32.8914 20.7074 31.2906 19.0743 29.5198C17.2697 27.5588 15.7373 25.3777 14.4771 23.0466C13.5799 21.3958 13.0355 19.6449 13.227 17.7239C13.4286 15.6829 14.3864 14.0521 15.9994 12.8215C16.322 12.5814 16.8059 12.4713 17.2193 12.4313C17.7536 12.3913 18.2879 12.4713 18.8222 12.5114C19.2658 12.5514 19.5078 12.8615 19.659 13.2217C20.0522 14.1822 20.405 15.1427 20.778 16.1131C21.0301 16.7635 21.2216 17.4438 21.524 18.0741C21.8971 18.8545 21.6652 19.5048 21.1813 20.1051C20.7679 20.6154 20.3344 21.1056 19.8606 21.5458C19.4674 21.916 19.3969 22.2962 19.659 22.7464C20.8183 24.7974 22.2297 26.6383 24.0948 28.1291C25.3248 29.1096 26.6858 29.8399 28.0972 30.5203C28.5105 30.7204 28.9138 30.6903 29.2364 30.3202C29.932 29.5298 30.6377 28.7494 31.3232 27.949C31.7668 27.4387 31.9886 27.3387 32.5834 27.6388C34.3073 28.4993 36.0111 29.3897 37.725 30.2801C38.1282 30.5003 38.229 30.8604 38.1585 31.3807Z" fill="#1B5745"/>
</svg>
